HIERARCHY
ROOT Hips
{
	OFFSET 0.00000 0.00000 0.00000
	CHANNELS 6 Xposition Yposition Zposition Zrotation Yrotation Xrotation 
	JOINT LHipJoint
	{
		OFFSET 0 0 0
		CHANNELS 3 Zrotation Yrotation Xrotation
		JOINT LeftUpLeg
		{
			OFFSET 1.38280 -1.96574 0.54427
			CHANNELS 3 Zrotation Yrotation Xrotation
			JOINT LeftLeg
			{
				OFFSET 2.72096 -7.47578 0.00000
				CHANNELS 3 Zrotation Yrotation Xrotation
				JOINT LeftFoot
				{
					OFFSET 2.73041 -7.50176 0.00000
					CHANNELS 3 Zrotation Yrotation Xrotation
					JOINT LeftToeBase
					{
						OFFSET 0.16150 -0.44371 2.18031
						CHANNELS 3 Zrotation Yrotation Xrotation
						End Site
						{
							OFFSET 0.00000 -0.00000 1.12127
						}
					}
				}
			}
		}
	}
	JOINT RHipJoint
	{
		OFFSET 0 0 0
		CHANNELS 3 Zrotation Yrotation Xrotation
		JOINT RightUpLeg
		{
			OFFSET -1.57224 -1.96575 0.54427
			CHANNELS 3 Zrotation Yrotation Xrotation
			JOINT RightLeg
			{
				OFFSET -2.95935 -8.13076 0.00000
				CHANNELS 3 Zrotation Yrotation Xrotation
				JOINT RightFoot
				{
					OFFSET -2.52345 -6.93311 0.00000
					CHANNELS 3 Zrotation Yrotation Xrotation
					JOINT RightToeBase
					{
						OFFSET -0.04475 -0.10171 1.86688
						CHANNELS 3 Zrotation Yrotation Xrotation
						End Site
						{
							OFFSET -0.00000 -0.00000 0.95157
						}
					}
				}
			}
		}
	}
	JOINT LowerBack
	{
		OFFSET 0 0 0
		CHANNELS 3 Zrotation Yrotation Xrotation
		JOINT Spine
		{
			OFFSET 0.00669 2.07367 0.09104
			CHANNELS 3 Zrotation Yrotation Xrotation
			JOINT Spine1
			{
				OFFSET -0.00664 2.06198 -0.04732
				CHANNELS 3 Zrotation Yrotation Xrotation
				JOINT Neck
				{
					OFFSET 0 0 0
					CHANNELS 3 Zrotation Yrotation Xrotation
					JOINT Neck1
					{
						OFFSET -0.00021 1.49948 0.16345
						CHANNELS 3 Zrotation Yrotation Xrotation
						JOINT Head
						{
							OFFSET 0.06080 1.50567 -0.26702
							CHANNELS 3 Zrotation Yrotation Xrotation
							End Site
							{
								OFFSET 0.01726 1.56470 -0.11854
							}
						}
					}
				}
				JOINT LeftShoulder
				{
					OFFSET 0 0 0
					CHANNELS 3 Zrotation Yrotation Xrotation
					JOINT LeftArm
					{
						OFFSET 3.14993 0.82932 -0.22488
						CHANNELS 3 Zrotation Yrotation Xrotation
						JOINT LeftForeArm
						{
							OFFSET 5.68236 -0.00000 -0.00000
							CHANNELS 3 Zrotation Yrotation Xrotation
							JOINT LeftHand
							{
								OFFSET 3.17112 -0.00000 0.00000
								CHANNELS 3 Zrotation Yrotation Xrotation
								JOINT LeftFingerBase
								{
									OFFSET 0 0 0
									CHANNELS 3 Zrotation Yrotation Xrotation
									JOINT LeftHandIndex1
									{
										OFFSET 0.63269 -0.00000 0.00000
										CHANNELS 3 Zrotation Yrotation Xrotation
										End Site
										{
											OFFSET 0.51009 -0.00000 0.00000
										}
									}
								}
								JOINT LThumb
								{
									OFFSET 0 0 0
									CHANNELS 3 Zrotation Yrotation Xrotation
									End Site
									{
										OFFSET 0.51788 -0.00000 0.51788
									}
								}
							}
						}
					}
				}
				JOINT RightShoulder
				{
					OFFSET 0 0 0
					CHANNELS 3 Zrotation Yrotation Xrotation
					JOINT RightArm
					{
						OFFSET -3.10571 0.91279 -0.33334
						CHANNELS 3 Zrotation Yrotation Xrotation
						JOINT RightForeArm
						{
							OFFSET -5.87120 -0.00000 -0.00000
							CHANNELS 3 Zrotation Yrotation Xrotation
							JOINT RightHand
							{
								OFFSET -3.37589 -0.00000 0.00000
								CHANNELS 3 Zrotation Yrotation Xrotation
								JOINT RightFingerBase
								{
									OFFSET 0 0 0
									CHANNELS 3 Zrotation Yrotation Xrotation
									JOINT RightHandIndex1
									{
										OFFSET -0.60326 -0.00000 0.00000
										CHANNELS 3 Zrotation Yrotation Xrotation
										End Site
										{
											OFFSET -0.48636 -0.00000 0.00000
										}
									}
								}
								JOINT RThumb
								{
									OFFSET 0 0 0
									CHANNELS 3 Zrotation Yrotation Xrotation
									End Site
									{
										OFFSET -0.49379 -0.00000 0.49379
									}
								}
							}
						}
					}
				}
			}
		}
	}
}
MOTION
Frames: 6
Frame Time: .0083333
-8.3890 17.5318 11.6669 227.6760 75.8437 -148.4120 0.0000 0.0000 0.0000 -10.9559 1.9689 -10.4879 6.9882 15.3220 48.8297 0.8226 -12.8756 -17.3282 0.2118 -2.9626 -8.1748 0.0000 0.0000 0.0000 -22.9235 15.2709 -97.1103 -4.0036 -12.1652 36.3190 0.7790 -15.5115 -7.7571 -0.1303 2.3272 -6.4107 -3.4095 -1.8268 13.0292 -0.7384 -1.4888 14.1312 1.2641 -0.5443 7.9364 -8.2824 -1.8022 -12.9006 10.6662 -2.6977 19.3384 4.7203 -0.7350 8.3724 0.0000 0.0000 0.0000 -55.6430 -32.3554 26.7205 78.6634 -59.5088 -50.1985 -0.0000 0.0000 -22.0057 15.7429 29.7193 7.9555 -7.1250 0.0000 -0.0000 -17.6796 59.7729 -6.4983 0.0000 0.0000 0.0000 71.5151 -10.1705 10.3464 -23.7223 34.8692 -7.5472 0.0000 0.0000 7.8872 -31.6699 31.1238 -17.6855 7.1250 -0.0000 -0.0000 -0.0983 5.3741 -0.1070
-8.4332 17.5105 11.6571 227.5130 75.5814 -148.6030 0.0000 0.0000 0.0000 -10.8642 1.8123 -10.8158 7.0884 15.4059 49.2079 0.8086 -12.9817 -17.2443 0.2013 -2.8889 -7.9696 0.0000 0.0000 0.0000 -25.7208 15.5476 -93.2507 -2.2770 -9.4207 27.1203 0.8026 -17.0718 -13.7652 -0.1541 -2.5293 6.9708 -3.2373 -2.0080 13.4120 -0.6121 -1.6901 14.3690 1.3214 -0.6240 8.0089 -8.2826 -1.7014 -12.6397 10.6265 -2.5578 19.2464 4.7173 -0.6797 8.2778 0.0000 0.0000 0.0000 -55.7108 -32.2298 26.1451 79.6648 -59.5925 -51.0617 -0.0000 0.0000 -21.9694 15.7798 29.6513 7.9586 -7.1250 0.0000 -0.0000 -17.5919 59.7167 -6.4411 0.0000 0.0000 0.0000 71.8029 -10.9100 9.8393 -23.5994 34.7377 -7.4770 0.0000 0.0000 8.0885 -31.7026 31.0543 -17.6734 7.1250 -0.0000 -0.0000 -0.1310 5.3094 -0.1426
-8.4686 17.4945 11.6460 227.2610 75.2389 -148.9180 0.0000 0.0000 0.0000 -10.7628 1.5654 -11.0225 7.1723 15.4753 49.5232 0.7953 -13.0661 -17.1600 0.1859 -2.7771 -7.6588 0.0000 0.0000 0.0000 -29.0564 15.8575 -88.5948 -0.9755 -6.2876 17.6211 0.5679 -18.5619 -20.7810 -0.9175 -6.1031 17.0839 -3.0484 -2.2196 13.7477 -0.4463 -1.9391 14.5503 1.4154 -0.7310 8.0456 -8.3163 -1.5969 -12.3733 10.5727 -2.4088 19.3197 4.7212 -0.6208 8.2367 -0.0000 -0.0000 0.0000 -56.0091 -31.9382 25.7015 80.4165 -59.6501 -51.7102 -0.0000 0.0000 -21.9149 15.8080 29.6506 7.9732 -7.1250 0.0000 -0.0000 -17.5611 59.7225 -6.4319 -0.0000 -0.0000 0.0000 72.0975 -11.7262 9.3919 -23.3855 34.5077 -7.3555 0.0000 0.0000 8.1757 -31.6541 30.9724 -17.6026 7.1250 -0.0000 -0.0000 -0.1209 5.2079 -0.1314
-8.4935 17.4826 11.6332 226.8990 74.8723 -149.3730 0.0000 0.0000 0.0000 -10.6916 1.2698 -11.1136 7.2424 15.5326 49.7852 0.7818 -13.1591 -17.0776 0.1638 -2.6078 -7.1888 0.0000 0.0000 0.0000 -26.3109 15.3690 -82.1150 -0.0717 -1.7280 4.7545 1.1194 -22.3590 -22.1862 -1.7468 -8.3175 23.6826 -2.8589 -2.4363 14.0226 -0.2635 -2.2015 14.6790 1.5283 -0.8480 8.0570 -8.3718 -1.5063 -12.1538 10.4998 -2.2743 19.5739 4.7266 -0.5682 8.2662 0.0000 -0.0000 0.0000 -56.5058 -31.5254 25.4249 80.8731 -59.6829 -52.1043 -0.0000 0.0000 -21.8457 15.8337 29.7014 7.9989 -7.1250 0.0000 -0.0000 -17.5700 59.7769 -6.4582 0.0000 -0.0000 0.0000 72.4330 -12.6053 8.9632 -23.0793 34.1754 -7.1828 0.0000 0.0000 8.0685 -31.5510 30.8435 -17.4744 7.1250 -0.0000 -0.0000 -0.0896 5.0405 -0.0971
-8.5077 17.4733 11.6193 226.5020 74.5256 -149.8860 0.0000 0.0000 0.0000 -10.6595 0.9609 -11.1081 7.3009 15.5801 50.0033 0.7716 -13.2529 -17.0230 0.1410 -2.4198 -6.6673 0.0000 0.0000 0.0000 -24.9380 14.6716 -79.4772 0.0000 -0.0000 0.0000 1.1054 -22.7341 -23.1609 -2.3304 -9.5228 27.4449 -2.6654 -2.6350 14.2226 -0.0811 -2.4459 14.7552 1.6371 -0.9581 8.0474 -8.4105 -1.4416 -11.9667 10.3916 -2.1735 19.9607 4.7179 -0.5309 8.3495 -0.0000 -0.0000 0.0000 -57.1581 -31.0130 25.3381 81.0433 -59.6947 -52.2512 -0.0000 0.0000 -21.7732 15.8930 29.7786 8.0488 -7.1250 0.0000 -0.0000 -17.5617 59.8644 -6.4919 -0.0000 -0.0000 0.0000 72.8472 -13.5390 8.4862 -22.6845 33.7421 -6.9623 0.0000 0.0000 7.8058 -31.3950 30.6918 -17.3018 7.1250 -0.0000 -0.0000 -0.0330 4.8338 -0.0357
-8.5110 17.4646 11.6049 226.1340 74.2266 -150.3810 0.0000 0.0000 0.0000 -10.6630 0.6504 -11.0567 7.3713 15.6367 50.2649 0.7737 -13.3454 -17.0705 0.1247 -2.2768 -6.2713 0.0000 0.0000 0.0000 -24.2716 14.5755 -78.9890 0.0000 -0.0000 0.0000 0.8476 -21.6032 -23.5382 -2.5770 -9.9766 28.9011 -2.4639 -2.8046 14.3380 0.0864 -2.6568 14.7816 1.7218 -1.0525 8.0229 -8.3971 -1.4025 -11.7801 10.2384 -2.1092 20.3958 4.6825 -0.5105 8.4527 0.0000 0.0000 0.0000 -57.9134 -30.4011 25.4263 80.9883 -59.6909 -52.2037 -0.0000 0.0000 -21.7023 15.9860 29.8619 8.1180 -7.1250 0.0000 -0.0000 -17.5219 59.9655 -6.5191 0.0000 0.0000 0.0000 73.3618 -14.5067 7.8903 -22.2089 33.2123 -6.6999 0.0000 0.0000 7.5662 -31.1590 30.6026 -17.1090 7.1250 -0.0000 -0.0000 0.0818 4.6713 0.0881
